<svg width="204" height="207" viewBox="0 0 204 207" fill="none" xmlns="http://www.w3.org/2000/svg">
<path fill-rule="evenodd" clip-rule="evenodd" d="M204 35.5C204 44.5777 200.593 52.8597 194.987 59.1367C194.996 59.4234 195 59.7112 195 60V123.376C200.422 127.043 204 133.343 204 140.5C204 147.657 200.422 153.957 195 157.624V167C195 183.016 182.016 196 166 196H110.727C107.385 202.539 100.701 207 93 207C85.299 207 78.6146 202.539 75.2726 196H59C42.9837 196 30 183.016 30 167V165.577C13.0057 162.933 0 148.235 0 130.5C0 112.765 13.0057 98.0667 30 95.4235V60C30 43.9837 42.9837 31 59 31H133.283C135.494 13.5185 150.418 0 168.5 0C188.106 0 204 15.8939 204 35.5Z" fill="#85D261"/>
<path d="M56.4729 109.193V119.223C56.1615 119.313 55.6662 119.404 54.9868 119.495C54.3075 119.586 53.6423 119.631 52.9912 119.631C52.3402 119.631 51.7599 119.57 51.2504 119.449C50.7692 119.359 50.3587 119.177 50.019 118.905C49.6794 118.633 49.4246 118.254 49.2548 117.77C49.0849 117.286 49 116.651 49 115.864V91.9031C49.3114 91.8426 49.8067 91.7669 50.4861 91.6762C51.1655 91.5551 51.8165 91.4946 52.4392 91.4946C53.0903 91.4946 53.6564 91.5551 54.1376 91.6762C54.6471 91.7669 55.0717 91.9484 55.4114 92.2207C55.7511 92.493 56.0059 92.8712 56.1757 93.3553C56.3455 93.8393 56.4305 94.4747 56.4305 95.2613V102.477L65.2621 91.6308C67.1869 91.6308 68.5598 92.0241 69.3807 92.8107C70.2299 93.567 70.6545 94.4747 70.6545 95.5336C70.6545 96.3202 70.4705 97.0614 70.1025 97.7572C69.7345 98.4531 69.1401 99.2397 68.3192 100.117L63.0117 105.79C63.7194 106.637 64.4553 107.514 65.2196 108.422C66.0122 109.329 66.7765 110.222 67.5124 111.099C68.2767 111.946 68.9985 112.763 69.6779 113.55C70.3856 114.337 70.9941 115.017 71.5037 115.592C71.5037 116.258 71.3904 116.848 71.164 117.362C70.9375 117.876 70.6262 118.315 70.2299 118.678C69.8619 119.041 69.4373 119.313 68.9561 119.495C68.4749 119.676 67.9654 119.767 67.4275 119.767C66.267 119.767 65.3187 119.465 64.5827 118.86C63.8468 118.224 63.1391 117.483 62.4597 116.636L56.4729 109.193Z" fill="#F7F8F4"/>
<path d="M77.1807 93.8088C77.0392 93.476 76.8835 93.0676 76.7137 92.5835C76.5722 92.0692 76.5014 91.5397 76.5014 90.9952C76.5014 89.8758 76.7137 89.1043 77.1383 88.6807C77.5629 88.2269 78.129 88 78.8367 88H90.0885C90.315 88.3328 90.4848 88.7564 90.598 89.2707C90.7113 89.7547 90.7679 90.2691 90.7679 90.8136C90.7679 91.933 90.5556 92.7196 90.131 93.1735C89.7347 93.597 89.1827 93.8088 88.475 93.8088H77.1807ZM95.0988 108.376C95.0988 110.252 94.8299 111.931 94.292 113.413C93.7542 114.866 92.9899 116.091 91.9992 117.089C91.0368 118.088 89.8762 118.844 88.5175 119.358C87.1588 119.873 85.6444 120.13 83.9743 120.13C82.3042 120.13 80.7898 119.858 79.4311 119.313C78.0724 118.768 76.8977 117.997 75.907 116.999C74.9445 115.97 74.1944 114.73 73.6566 113.277C73.1188 111.825 72.8499 110.191 72.8499 108.376C72.8499 106.591 73.1188 104.973 73.6566 103.52C74.1944 102.068 74.9445 100.843 75.907 99.8445C76.8977 98.8159 78.0724 98.0293 79.4311 97.4847C80.7898 96.9401 82.3042 96.6678 83.9743 96.6678C85.6444 96.6678 87.1588 96.9552 88.5175 97.5301C89.8762 98.0746 91.0368 98.8612 91.9992 99.8899C92.9899 100.888 93.7542 102.114 94.292 103.566C94.8299 105.018 95.0988 106.621 95.0988 108.376ZM80.2379 108.376C80.2379 110.222 80.5634 111.644 81.2144 112.642C81.8938 113.61 82.8279 114.094 84.0168 114.094C85.2056 114.094 86.1114 113.595 86.7342 112.597C87.3852 111.598 87.7108 110.191 87.7108 108.376C87.7108 106.561 87.3852 105.169 86.7342 104.201C86.0831 103.203 85.1632 102.704 83.9743 102.704C82.7854 102.704 81.8655 103.203 81.2144 104.201C80.5634 105.169 80.2379 106.561 80.2379 108.376Z" fill="#F7F8F4"/>
<path d="M108.513 96.6677C109.674 96.6677 110.806 96.8492 111.91 97.2123C113.042 97.5451 114.019 98.0594 114.84 98.7553C115.689 98.1502 116.637 97.651 117.685 97.2577C118.76 96.8644 120.048 96.6677 121.548 96.6677C122.624 96.6677 123.671 96.819 124.69 97.1215C125.738 97.4241 126.658 97.9081 127.45 98.5737C128.271 99.2091 128.922 100.071 129.403 101.16C129.885 102.219 130.125 103.52 130.125 105.063V119.358C129.842 119.449 129.389 119.54 128.767 119.631C128.172 119.721 127.549 119.767 126.898 119.767C126.276 119.767 125.709 119.721 125.2 119.631C124.719 119.54 124.308 119.358 123.969 119.086C123.629 118.814 123.36 118.451 123.162 117.997C122.992 117.513 122.907 116.893 122.907 116.136V105.29C122.907 104.383 122.666 103.732 122.185 103.339C121.704 102.915 121.053 102.703 120.232 102.703C119.836 102.703 119.411 102.809 118.958 103.021C118.505 103.203 118.166 103.399 117.939 103.611C117.968 103.732 117.982 103.853 117.982 103.974C117.982 104.065 117.982 104.156 117.982 104.246V119.358C117.67 119.449 117.203 119.54 116.581 119.631C115.986 119.721 115.378 119.767 114.755 119.767C114.132 119.767 113.566 119.721 113.056 119.631C112.575 119.54 112.165 119.358 111.825 119.086C111.485 118.814 111.217 118.451 111.018 117.997C110.849 117.513 110.764 116.893 110.764 116.136V105.29C110.764 104.383 110.495 103.732 109.957 103.339C109.447 102.915 108.825 102.703 108.089 102.703C107.579 102.703 107.14 102.794 106.772 102.976C106.404 103.127 106.093 103.278 105.838 103.43V119.358C105.555 119.449 105.102 119.54 104.48 119.631C103.885 119.721 103.262 119.767 102.611 119.767C101.989 119.767 101.422 119.721 100.913 119.631C100.432 119.54 100.021 119.358 99.6816 119.086C99.3419 118.814 99.073 118.451 98.8749 117.997C98.705 117.513 98.6201 116.893 98.6201 116.136V102.431C98.6201 101.614 98.7758 100.964 99.0872 100.48C99.4269 99.9957 99.8798 99.5419 100.446 99.1183C101.408 98.3922 102.597 97.8023 104.013 97.3484C105.456 96.8946 106.956 96.6677 108.513 96.6677Z" fill="#F7F8F4"/>
<path d="M145.441 120.13C143.771 120.13 142.214 119.888 140.77 119.404C139.355 118.889 138.109 118.133 137.034 117.135C135.986 116.136 135.151 114.881 134.529 113.368C133.934 111.855 133.637 110.085 133.637 108.058C133.637 106.062 133.934 104.352 134.529 102.93C135.151 101.478 135.958 100.298 136.949 99.3906C137.94 98.4527 139.072 97.772 140.346 97.3484C141.619 96.8946 142.921 96.6677 144.252 96.6677C145.752 96.6677 147.111 96.9098 148.328 97.3938C149.574 97.8779 150.635 98.5435 151.513 99.3906C152.418 100.238 153.112 101.251 153.593 102.431C154.103 103.611 154.357 104.897 154.357 106.289C154.357 107.317 154.088 108.104 153.551 108.648C153.013 109.193 152.263 109.541 151.3 109.692L140.813 111.371C141.124 112.37 141.761 113.126 142.723 113.64C143.686 114.124 144.79 114.366 146.035 114.366C147.196 114.366 148.286 114.215 149.305 113.913C150.352 113.58 151.201 113.202 151.852 112.778C152.305 113.081 152.687 113.504 152.999 114.049C153.31 114.593 153.466 115.168 153.466 115.773C153.466 117.135 152.871 118.148 151.682 118.814C150.777 119.328 149.758 119.676 148.625 119.858C147.493 120.039 146.431 120.13 145.441 120.13ZM144.252 102.295C143.573 102.295 142.978 102.416 142.469 102.658C141.987 102.9 141.591 103.218 141.28 103.611C140.968 103.974 140.728 104.398 140.558 104.882C140.416 105.336 140.331 105.804 140.303 106.289L147.564 105.018C147.479 104.413 147.167 103.808 146.63 103.203C146.092 102.598 145.299 102.295 144.252 102.295Z" fill="#F7F8F4"/>
<path d="M178 115.41C177.858 116.832 177.462 117.921 176.811 118.678C176.188 119.434 175.268 119.812 174.051 119.812C173.145 119.812 172.339 119.585 171.631 119.131C170.923 118.647 170.159 117.846 169.338 116.726L165.135 111.099V119.358C164.823 119.419 164.356 119.495 163.733 119.585C163.139 119.706 162.53 119.767 161.908 119.767C161.285 119.767 160.719 119.721 160.209 119.631C159.728 119.54 159.318 119.358 158.978 119.086C158.638 118.814 158.369 118.451 158.171 117.997C158.001 117.513 157.917 116.893 157.917 116.136V89.8605C158.228 89.7698 158.681 89.679 159.275 89.5883C159.898 89.4672 160.521 89.4067 161.143 89.4067C161.766 89.4067 162.318 89.4521 162.799 89.5429C163.309 89.6336 163.733 89.8152 164.073 90.0875C164.413 90.3597 164.668 90.7379 164.837 91.222C165.036 91.6758 165.135 92.2809 165.135 93.0372V105.018L172.438 97.0308C173.91 97.0308 175.084 97.3787 175.962 98.0746C176.868 98.7704 177.321 99.6478 177.321 100.707C177.321 101.16 177.25 101.584 177.108 101.977C176.967 102.34 176.74 102.719 176.429 103.112C176.146 103.505 175.764 103.929 175.283 104.383C174.83 104.806 174.292 105.305 173.669 105.88L171.206 108.149L178 115.41Z" fill="#F7F8F4"/>
</svg>
